<svg width="65" height="65" viewBox="0 0 65 65" fill="none" xmlns="http://www.w3.org/2000/svg">
<g clip-path="url(#clip0_2141_1343)">
<path d="M20.3125 44.6875H44.6875V41.9792H20.3125V44.6875ZM32.5 36.0425L41.4592 27.0833L39.5417 25.1658L33.8542 30.8235V17.6042H31.1458V30.8208L25.4583 25.1685L23.5408 27.0833L32.5 36.0425ZM32.5081 56.875C29.139 56.875 25.9702 56.2358 23.0019 54.9575C20.0353 53.6774 17.4543 51.9404 15.2587 49.7467C13.0632 47.5547 11.3253 44.9764 10.0452 42.0117C8.76507 39.0469 8.125 35.8791 8.125 32.5081C8.125 29.139 8.76417 25.9702 10.0425 23.0019C11.3226 20.0353 13.0596 17.4543 15.2533 15.2587C17.4453 13.0632 20.0236 11.3253 22.9883 10.0452C25.9531 8.76507 29.1209 8.125 32.4919 8.125C35.861 8.125 39.0298 8.76417 41.9981 10.0425C44.9647 11.3226 47.5457 13.0596 49.7412 15.2533C51.9368 17.4453 53.6747 20.0236 54.9548 22.9883C56.2349 25.9531 56.875 29.1209 56.875 32.4919C56.875 35.861 56.2358 39.0298 54.9575 41.9981C53.6774 44.9647 51.9404 47.5457 49.7467 49.7412C47.5547 51.9368 44.9764 53.6747 42.0117 54.9548C39.0469 56.2349 35.8791 56.875 32.5081 56.875ZM32.5 54.1667C38.5486 54.1667 43.6719 52.0677 47.8698 47.8698C52.0677 43.6719 54.1667 38.5486 54.1667 32.5C54.1667 26.4514 52.0677 21.3281 47.8698 17.1302C43.6719 12.9323 38.5486 10.8333 32.5 10.8333C26.4514 10.8333 21.3281 12.9323 17.1302 17.1302C12.9323 21.3281 10.8333 26.4514 10.8333 32.5C10.8333 38.5486 12.9323 43.6719 17.1302 47.8698C21.3281 52.0677 26.4514 54.1667 32.5 54.1667Z" fill="#08355C"/>
</g>
<defs>
<clipPath id="clip0_2141_1343">
<rect width="65" height="65" fill="white"/>
</clipPath>
</defs>
</svg>
