<svg width="62" height="62" viewBox="0 0 62 62" fill="none" xmlns="http://www.w3.org/2000/svg">
<path d="M7.75 33.5833C17.05 12.9166 44.95 12.9166 54.25 33.5833" stroke="#08355C" stroke-width="3.5" stroke-linecap="round" stroke-linejoin="round"/>
<path d="M31 43.9165C29.9823 43.9165 28.9745 43.716 28.0342 43.3266C27.0939 42.9371 26.2396 42.3662 25.5199 41.6466C24.8003 40.9269 24.2294 40.0726 23.8399 39.1323C23.4505 38.192 23.25 37.1842 23.25 36.1665C23.25 35.1488 23.4505 34.141 23.8399 33.2007C24.2294 32.2604 24.8003 31.4061 25.5199 30.6864C26.2396 29.9668 27.0939 29.3959 28.0342 29.0064C28.9745 28.617 29.9823 28.4165 31 28.4165C33.0554 28.4165 35.0267 29.233 36.4801 30.6864C37.9335 32.1398 38.75 34.1111 38.75 36.1665C38.75 38.2219 37.9335 40.1932 36.4801 41.6466C35.0267 43.1 33.0554 43.9165 31 43.9165Z" stroke="#08355C" stroke-width="3.5" stroke-linecap="round" stroke-linejoin="round"/>
</svg>
