<svg width="40" height="40" viewBox="0 0 40 40" fill="none" xmlns="http://www.w3.org/2000/svg">
<g clip-path="url(#clip0_2141_857)">
<path d="M19.9998 6.66675C17.3628 6.66675 14.7849 7.44873 12.5922 8.91382C10.3996 10.3789 8.69062 12.4613 7.68145 14.8976C6.67228 17.334 6.40824 20.0149 6.92271 22.6013C7.43718 25.1877 8.70705 27.5635 10.5718 29.4282C12.4365 31.2929 14.8122 32.5627 17.3986 33.0772C19.9851 33.5917 22.6659 33.3276 25.1023 32.3185C27.5386 31.3093 29.621 29.6003 31.0861 27.4077C32.5512 25.215 33.3332 22.6372 33.3332 20.0001C33.3332 16.4639 31.9284 13.0725 29.4279 10.572C26.9275 8.07151 23.5361 6.66675 19.9998 6.66675ZM17.7776 12.389C17.7776 11.9495 17.908 11.5198 18.1521 11.1544C18.3963 10.7889 18.7434 10.5041 19.1494 10.3359C19.5555 10.1677 20.0023 10.1237 20.4334 10.2094C20.8644 10.2952 21.2604 10.5068 21.5712 10.8176C21.882 11.1284 22.0936 11.5244 22.1794 11.9554C22.2651 12.3865 22.2211 12.8333 22.0529 13.2394C21.8847 13.6454 21.5999 13.9925 21.2344 14.2367C20.869 14.4809 20.4394 14.6112 19.9998 14.6112C19.6988 14.6263 19.3978 14.5799 19.1153 14.475C18.8327 14.3701 18.5744 14.2088 18.3562 14.0009C18.1379 13.7931 17.9642 13.543 17.8456 13.2658C17.7271 12.9887 17.6661 12.6904 17.6665 12.389H17.7776ZM25.5554 26.6667C25.5554 26.9614 25.4383 27.2441 25.23 27.4524C25.0216 27.6608 24.739 27.7779 24.4443 27.7779H16.6665C16.3718 27.7779 16.0892 27.6608 15.8808 27.4524C15.6725 27.2441 15.5554 26.9614 15.5554 26.6667C15.5554 26.3721 15.6725 26.0894 15.8808 25.8811C16.0892 25.6727 16.3718 25.5556 16.6665 25.5556H18.8887V18.889H17.7776C17.4829 18.889 17.2003 18.7719 16.9919 18.5635C16.7836 18.3552 16.6665 18.0725 16.6665 17.7779C16.6665 17.4832 16.7836 17.2006 16.9919 16.9922C17.2003 16.7838 17.4829 16.6667 17.7776 16.6667H22.2221V25.5556H24.4443C24.739 25.5556 25.0216 25.6727 25.23 25.8811C25.4383 26.0894 25.5554 26.3721 25.5554 26.6667Z" fill="#0061B2"/>
</g>
<defs>
<clipPath id="clip0_2141_857">
<rect width="40" height="40" fill="white"/>
</clipPath>
</defs>
</svg>
