<svg width="50" height="50" viewBox="0 0 50 50" fill="none" xmlns="http://www.w3.org/2000/svg">
<g clip-path="url(#clip0_316_722)">
<path d="M0.5 25C0.5 11.4683 11.4683 0.5 25 0.5C38.5317 0.5 49.5 11.4683 49.5 25C49.5 38.5301 38.5317 49.5 25 49.5C11.4684 49.5 0.5 38.5301 0.5 25Z" fill="#EFF4FF" stroke="#E8EEFF"/>
<path d="M37.9578 35.8471V26.258C37.9578 21.1205 35.2156 18.7299 31.5578 18.7299C28.6062 18.7299 27.2844 20.3533 26.5484 21.4924V19.1221H20.9891C21.0625 20.6924 20.9891 35.8471 20.9891 35.8471H26.5484V26.5064C26.5484 26.008 26.5844 25.508 26.7312 25.1518C27.1328 24.1533 28.0469 23.1189 29.5828 23.1189C31.5953 23.1189 32.4 24.6518 32.4 26.9002V35.8486L37.9578 35.8471ZM15.1313 16.8393C17.0688 16.8393 18.2766 15.5533 18.2766 13.9486C18.2406 12.308 17.0688 11.0596 15.1672 11.0596C13.2656 11.0596 12.0234 12.308 12.0234 13.9486C12.0234 15.5549 13.2297 16.8393 15.0969 16.8393H15.1313ZM17.9109 35.8471V19.1221H12.3531V35.8471H17.9109Z" fill="black"/>
</g>
<defs>
<clipPath id="clip0_316_722">
<rect width="50" height="50" fill="white"/>
</clipPath>
</defs>
</svg>
