<svg width="79" height="57" viewBox="0 0 79 57" fill="none" xmlns="http://www.w3.org/2000/svg">
<g clip-path="url(#clip0_393_1044)">
<mask id="mask0_393_1044" style="mask-type:luminance" maskUnits="userSpaceOnUse" x="0" y="0" width="27" height="57">
<path d="M0.844238 0.345947H26.4867V56.7757H0.844238V0.345947Z" fill="white"/>
</mask>
<g mask="url(#mask0_393_1044)">
<path d="M15.0198 17.3464H15.0473C15.0473 14.9813 15.0499 12.6172 15.0464 10.253C15.0437 9.17322 15.0393 8.09342 15.0145 7.01362C15.002 6.48162 14.8354 5.95401 14.3115 5.74858C13.1999 5.31139 12.2727 5.97332 12.2727 7.14618C12.2736 12.9113 12.2763 18.6755 12.279 24.4406C12.2798 25.4475 12.2807 26.4544 12.2878 27.4614C12.2931 28.0715 12.6442 28.7431 13.051 28.83C14.0181 29.0346 15.0481 28.823 15.0322 27.4596C14.9932 24.0885 15.0198 20.7175 15.0198 17.3464ZM0.848536 28.4025C0.848536 21.5725 0.849423 14.7434 0.846763 7.91433C0.846763 6.64754 1.05419 5.41586 1.4841 4.2272C2.27302 2.04477 3.9714 0.998329 6.17948 0.61996C7.80163 0.342547 9.44152 0.444382 11.0752 0.436481C13.8302 0.423313 16.5852 0.438237 19.3402 0.459306C20.4801 0.468085 21.6059 0.613814 22.6528 1.09402C24.8644 2.10974 25.9378 3.91555 26.2153 6.24459C26.2738 6.73621 26.2747 7.23572 26.2756 7.73085C26.2809 16.7204 26.2791 25.7091 26.2924 34.6987C26.2933 35.1052 26.0522 35.0147 25.8332 35.0147C21.8257 35.0174 17.8182 35.0165 13.8098 35.0165C13.6777 35.0165 13.5448 35.0139 13.4127 35.0182C12.7115 35.0428 12.2905 35.4484 12.2754 36.1455C12.2612 36.8311 12.2727 37.5167 12.2727 38.2023C12.2727 42.3469 12.2719 46.4914 12.2727 50.6359C12.2727 51.7973 13.4145 52.4531 14.4463 51.8798C14.9249 51.6138 15.065 51.1688 15.0623 50.6561C15.0526 49.1092 15.0402 47.5633 15.0384 46.0164C15.034 43.4337 15.0437 40.8501 15.0295 38.2673C15.0269 37.9065 15.0809 37.7704 15.4993 37.7731C18.9475 37.7933 22.3957 37.7906 25.843 37.7766C26.2153 37.7748 26.3146 37.8828 26.3119 38.2419C26.2827 42.1959 26.3438 46.1507 26.2605 50.1048C26.2295 51.5682 25.921 52.9412 25.0452 54.1422C23.8255 55.8128 22.1049 56.5686 20.0759 56.6494C15.9975 56.8127 11.9146 56.7881 7.83355 56.739C6.52696 56.7232 5.27001 56.3904 4.09462 55.8207C2.33507 54.9665 1.47258 53.4688 1.10826 51.6323C0.816625 50.1618 0.844991 48.6712 0.844991 47.184C0.845877 40.9229 0.845877 34.6627 0.845877 28.4025" fill="#0F0F0F"/>
</g>
<mask id="mask1_393_1044" style="mask-type:luminance" maskUnits="userSpaceOnUse" x="29" y="0" width="27" height="57">
<path d="M29.8906 0.346069H55.5331V56.7758H29.8906V0.346069Z" fill="white"/>
</mask>
<g mask="url(#mask1_393_1044)">
<path d="M29.9906 20.6296C29.9906 16.2806 29.9897 11.9315 29.9915 7.58244C29.9924 6.76337 30.0979 5.95484 30.2902 5.15684C30.9134 2.57409 32.6091 1.03252 35.2657 0.617277C36.9207 0.3583 38.588 0.444333 40.2501 0.436433C42.9767 0.423264 45.7025 0.440822 48.4282 0.45838C49.4192 0.464525 50.3969 0.588307 51.3366 0.919271C53.6333 1.72781 55.165 3.83474 55.3228 6.30424C55.4345 8.05387 55.4239 9.80438 55.4265 11.5549C55.4336 16.2691 55.4212 20.9834 55.4318 25.6968C55.4327 26.0427 55.3405 26.1234 54.9993 26.1217C51.5068 26.1085 48.0134 26.1085 44.5209 26.1217C44.1787 26.1226 44.0856 26.0418 44.0865 25.6941C44.098 19.5208 44.0945 13.3475 44.0945 7.17422C44.0945 6.99952 44.0998 6.82219 44.0803 6.64925C44.0236 6.16026 43.7417 5.84422 43.2595 5.74502C42.8154 5.65284 42.3775 5.71078 41.9609 5.87758C41.6701 5.99434 41.4937 6.21557 41.4175 6.52195C41.3643 6.73879 41.3643 6.95563 41.3643 7.17422C41.3643 13.9024 41.3643 20.6305 41.3643 27.3586C41.3643 28.528 41.7419 28.9028 42.92 28.9028C46.9284 28.9028 50.9368 28.9072 54.9452 28.8949C55.3042 28.8941 55.4363 28.9406 55.4345 29.3523C55.4141 36.1094 55.4185 42.8665 55.4061 49.6236C55.4035 51.2925 55.017 52.8621 54.0198 54.2396C52.9658 55.6933 51.5068 56.4755 49.7206 56.5765C45.4516 56.8179 41.1764 56.767 36.9038 56.7328C35.763 56.7231 34.6576 56.4545 33.6019 56.0225C31.5055 55.1631 30.495 53.4933 30.1165 51.3706C29.98 50.6086 29.9454 49.8352 29.9463 49.0609C29.9481 45.4703 29.9552 41.8806 29.9365 38.2901C29.9348 37.8485 30.0536 37.7423 30.4976 37.7449C33.976 37.766 37.4534 37.7625 40.9308 37.7484C41.2863 37.7467 41.3581 37.8468 41.3572 38.1803C41.3457 42.3108 41.3678 46.4413 41.3395 50.5709C41.3306 51.9535 42.1674 52.1554 43.3703 51.9649C43.7887 51.8991 44.0768 51.3188 44.0776 50.721C44.0821 48.255 44.0856 45.7881 44.0874 43.3221C44.0883 40.987 44.0883 38.6509 44.0874 36.3166C44.0865 35.2912 43.7426 34.9532 42.7072 34.9515C38.596 34.9462 34.4848 34.9366 30.3735 34.9445C30.0234 34.9445 29.9383 34.8505 29.9392 34.509C29.9507 29.8826 29.9472 25.2561 29.9472 20.6296" fill="#0F0F0F"/>
</g>
<mask id="mask2_393_1044" style="mask-type:luminance" maskUnits="userSpaceOnUse" x="58" y="17" width="13" height="40">
<path d="M58.9365 17.8757H70.5097V56.7758H58.9365V17.8757Z" fill="white"/>
</mask>
<g mask="url(#mask2_393_1044)">
<path d="M70.3468 37.3614C70.3468 43.6646 70.3423 49.9678 70.3565 56.2711C70.3574 56.674 70.2501 56.7627 69.8557 56.7609C66.4084 56.7443 62.9611 56.7469 59.5138 56.7583C59.1832 56.7592 59.0732 56.696 59.0732 56.3387C59.0839 43.6743 59.0839 31.009 59.0732 18.3446C59.0732 18.0048 59.1707 17.9451 59.489 17.946C62.9505 17.9574 66.4128 17.9592 69.8752 17.9442C70.2475 17.9425 70.3583 18.0101 70.3574 18.4078C70.3423 24.7251 70.3468 31.0432 70.3468 37.3614Z" fill="#0F0F0F"/>
</g>
<path d="M65.1578 0.347765C66.9555 0.347765 68.7522 0.344254 70.549 0.348643C71.7599 0.351277 72.3139 0.898201 72.2678 2.10354C72.1747 4.5827 72.2164 7.06185 72.2261 9.54101C72.2297 10.325 71.6455 11.0308 70.8566 11.1098C68.6308 11.3337 66.4032 11.5364 64.1756 11.741C62.8123 11.8665 61.4508 12.021 60.0848 12.0851C58.5371 12.1589 58.2322 11.8147 58.2109 10.2758C58.1746 7.54908 58.1223 4.82148 58.0779 2.09476C58.0558 0.805145 58.4999 0.357422 59.8118 0.354788C61.5935 0.352155 63.3761 0.354788 65.1578 0.354788" fill="#0061B2"/>
<mask id="mask3_393_1044" style="mask-type:luminance" maskUnits="userSpaceOnUse" x="58" y="12" width="21" height="5">
<path d="M58.9365 12.2572H78.109V16.3025H58.9365V12.2572Z" fill="white"/>
</mask>
<g mask="url(#mask3_393_1044)">
<path d="M64.3505 16.1005C64.1306 16.0926 63.9418 16.0145 63.7583 15.9197C62.3126 15.1761 60.8589 14.4457 59.3723 13.7829C59.2748 13.739 59.1064 13.7372 59.1454 13.5731C59.1764 13.4405 59.3183 13.4993 59.4096 13.4923C61.0016 13.3615 62.598 13.2649 64.1883 13.1227C64.7804 13.07 65.1323 13.0314 65.8255 12.9586C67.3244 12.8014 69.5635 12.5723 72.6802 12.2738C73.5205 12.5459 74.1933 12.7953 74.6516 12.9726C76.2862 13.6038 77.5582 14.1218 77.8383 14.2324C77.9367 14.271 78.1193 14.2482 78.1086 14.4036C78.0953 14.5949 77.9057 14.5256 77.7904 14.5405C74.7145 14.9391 71.6271 15.2463 68.545 15.594C67.5513 15.7055 66.1091 15.874 64.3505 16.1005Z" fill="#0061B2"/>
</g>
</g>
<defs>
<clipPath id="clip0_393_1044">
<rect width="77.2654" height="56.4298" fill="white" transform="translate(0.844238 0.345947)"/>
</clipPath>
</defs>
</svg>
