<svg width="69" height="51" viewBox="0 0 69 51" fill="none" xmlns="http://www.w3.org/2000/svg">
<mask id="mask0_438_24766" style="mask-type:luminance" maskUnits="userSpaceOnUse" x="0" y="0" width="23" height="51">
<path d="M0 0H22.8994V51H0V0Z" fill="white"/>
</mask>
<g mask="url(#mask0_438_24766)">
<path d="M12.6591 15.3645H12.6837C12.6837 13.227 12.686 11.0903 12.6829 8.95367C12.6805 7.97777 12.6765 7.00187 12.6544 6.02597C12.6433 5.54516 12.4945 5.06831 12.0266 4.88266C11.034 4.48753 10.206 5.08577 10.206 6.14577C10.2067 11.3561 10.2091 16.5657 10.2115 21.7761C10.2123 22.6861 10.2131 23.5962 10.2194 24.5062C10.2242 25.0576 10.5376 25.6646 10.901 25.7431C11.7646 25.928 12.6844 25.7368 12.6702 24.5046C12.6354 21.4579 12.6591 18.4112 12.6591 15.3645ZM0.00383819 25.3568C0.00383819 19.184 0.00462978 13.012 0.00225499 6.84001C0.00225499 5.69511 0.187489 4.58195 0.571414 3.50767C1.27594 1.53523 2.79264 0.589482 4.76451 0.24752C6.21313 -0.00319915 7.67759 0.0888371 9.13651 0.0816964C11.5968 0.0697951 14.0571 0.0832831 16.5174 0.102325C17.5354 0.110259 18.5407 0.241966 19.4756 0.675965C21.4506 1.59395 22.4092 3.226 22.657 5.33094C22.7092 5.77525 22.71 6.2267 22.7108 6.67419C22.7156 14.7988 22.714 22.9226 22.7259 31.0471C22.7267 31.4145 22.5113 31.3328 22.3158 31.3328C18.737 31.3351 15.1582 31.3343 11.5786 31.3343C11.4606 31.3343 11.3419 31.332 11.2239 31.3359C10.5978 31.3581 10.2218 31.7247 10.2083 32.3547C10.1957 32.9743 10.206 33.594 10.206 34.2136C10.206 37.9594 10.2052 41.7051 10.206 45.4508C10.206 46.5005 11.2255 47.0932 12.147 46.5751C12.5744 46.3347 12.6995 45.9324 12.6971 45.469C12.6884 44.071 12.6773 42.6738 12.6757 41.2758C12.6718 38.9416 12.6805 36.6066 12.6678 34.2724C12.6654 33.9463 12.7137 33.8233 13.0874 33.8257C16.1667 33.8439 19.246 33.8415 22.3245 33.8288C22.657 33.8273 22.7457 33.9248 22.7433 34.2494C22.7172 37.8229 22.7718 41.3972 22.6974 44.9708C22.6697 46.2934 22.3942 47.5343 21.6121 48.6197C20.5229 50.1296 18.9864 50.8127 17.1744 50.8857C13.5322 51.0333 9.88615 51.0111 6.24163 50.9666C5.07482 50.9523 3.95233 50.6516 2.90267 50.1367C1.33135 49.3647 0.561123 48.0112 0.235776 46.3513C-0.0246594 45.0224 0.000671787 43.6751 0.000671787 42.3311C0.00146338 36.6724 0.00146338 31.0146 0.00146338 25.3568" fill="white"/>
</g>
<mask id="mask1_438_24766" style="mask-type:luminance" maskUnits="userSpaceOnUse" x="25" y="0" width="24" height="51">
<path d="M25.9395 0H48.8388V51H25.9395V0Z" fill="white"/>
</mask>
<g mask="url(#mask1_438_24766)">
<path d="M26.0288 18.3318C26.0288 14.4013 26.028 10.4707 26.0296 6.5401C26.0304 5.79984 26.1246 5.06911 26.2963 4.34789C26.8528 2.01366 28.3672 0.620427 30.7396 0.245141C32.2175 0.0110833 33.7065 0.0888381 35.1907 0.0816974C37.6257 0.0697961 40.0599 0.0856644 42.494 0.101533C43.379 0.107087 44.2522 0.218958 45.0912 0.518076C47.1423 1.24881 48.5102 3.15301 48.6511 5.38489C48.7508 6.96617 48.7413 8.54824 48.7437 10.1303C48.75 14.3909 48.7389 18.6516 48.7484 22.9114C48.7492 23.224 48.6669 23.297 48.3621 23.2955C45.2432 23.2836 42.1235 23.2836 39.0047 23.2955C38.6991 23.2962 38.616 23.2233 38.6168 22.9091C38.6271 17.3298 38.6239 11.7505 38.6239 6.17116C38.6239 6.01327 38.6286 5.853 38.6112 5.6967C38.5606 5.25477 38.3088 4.96914 37.8782 4.87948C37.4816 4.79617 37.0906 4.84854 36.7185 4.99929C36.4589 5.10481 36.3013 5.30475 36.2333 5.58166C36.1858 5.77763 36.1858 5.9736 36.1858 6.17116C36.1858 12.2519 36.1858 18.3326 36.1858 24.4134C36.1858 25.4702 36.523 25.809 37.575 25.809C41.1546 25.809 44.7342 25.813 48.3138 25.8019C48.6344 25.8011 48.7524 25.8431 48.7508 26.2152C48.7326 32.3221 48.7366 38.4291 48.7255 44.536C48.7231 46.0443 48.378 47.4629 47.4874 48.7078C46.5462 50.0217 45.2432 50.7286 43.6482 50.8198C39.8358 51.038 36.018 50.992 32.2024 50.9611C31.1837 50.9523 30.1965 50.7096 29.2537 50.3192C27.3816 49.5424 26.4792 48.0334 26.1412 46.1149C26.0193 45.4262 25.9884 44.7272 25.9892 44.0274C25.9908 40.7823 25.9971 37.5381 25.9805 34.293C25.9789 33.8939 26.085 33.7979 26.4816 33.8003C29.5878 33.8193 32.6932 33.8161 35.7987 33.8035C36.1161 33.8019 36.1802 33.8923 36.1794 34.1938C36.1691 37.9268 36.1889 41.6599 36.1636 45.3921C36.1557 46.6417 36.903 46.8242 37.9772 46.652C38.3508 46.5925 38.6081 46.0681 38.6089 45.5278C38.6128 43.299 38.616 41.0696 38.6176 38.8408C38.6184 36.7304 38.6184 34.6191 38.6176 32.5094C38.6168 31.5827 38.3096 31.2772 37.385 31.2756C33.7136 31.2709 30.0422 31.2621 26.3707 31.2693C26.0581 31.2693 25.9821 31.1844 25.9829 30.8757C25.9932 26.6944 25.99 22.5131 25.99 18.3318" fill="white"/>
</g>
<mask id="mask2_438_24766" style="mask-type:luminance" maskUnits="userSpaceOnUse" x="51" y="15" width="12" height="36">
<path d="M51.8779 15.843H62.213V51H51.8779V15.843Z" fill="white"/>
</mask>
<g mask="url(#mask2_438_24766)">
<path d="M62.0675 33.4536C62.0675 39.1504 62.0636 44.8471 62.0763 50.5438C62.077 50.908 61.9813 50.9881 61.629 50.9865C58.5505 50.9715 55.4719 50.9739 52.3934 50.9842C52.0982 50.985 52 50.9278 52 50.6049C52.0095 39.1591 52.0095 27.7125 52 16.2667C52 15.9596 52.0871 15.9057 52.3713 15.9065C55.4625 15.9168 58.5544 15.9184 61.6464 15.9049C61.9789 15.9033 62.0778 15.9644 62.077 16.3238C62.0636 22.0332 62.0675 27.7434 62.0675 33.4536Z" fill="white"/>
</g>
<path d="M57.4335 0.00156807C59.0389 0.00156807 60.6435 -0.00160559 62.248 0.00236149C63.3294 0.00474173 63.8241 0.49904 63.783 1.5884C63.6998 3.82901 63.737 6.06961 63.7458 8.31022C63.7489 9.01874 63.2273 9.65664 62.5227 9.72805C60.535 9.93037 58.5457 10.1137 56.5565 10.2985C55.339 10.412 54.1231 10.5516 52.9032 10.6095C51.5211 10.6762 51.2488 10.3652 51.2298 8.97431C51.1973 6.50996 51.1506 4.04481 51.1111 1.58047C51.0913 0.414938 51.4879 0.0102957 52.6594 0.00791539C54.2505 0.00553516 55.8424 0.00791539 57.4335 0.00791539" fill="#0061B2"/>
<mask id="mask3_438_24766" style="mask-type:luminance" maskUnits="userSpaceOnUse" x="51" y="10" width="18" height="5">
<path d="M51.8779 10.7651H68.9994V14.4211H51.8779V10.7651Z" fill="white"/>
</mask>
<g mask="url(#mask3_438_24766)">
<path d="M56.713 14.2387C56.5167 14.2315 56.348 14.1609 56.1842 14.0752C54.8931 13.4032 53.5949 12.7431 52.2674 12.144C52.1803 12.1044 52.0299 12.1028 52.0647 11.9544C52.0924 11.8346 52.2191 11.8878 52.3006 11.8814C53.7223 11.7632 55.148 11.6759 56.5681 11.5474C57.0969 11.4998 57.4112 11.4649 58.0302 11.399C59.3688 11.257 61.3684 11.0499 64.1516 10.7802C64.9021 11.0261 65.5029 11.2514 65.9121 11.4117C67.3718 11.9822 68.5078 12.4503 68.7579 12.5503C68.8458 12.5852 69.0089 12.5645 68.9994 12.705C68.9875 12.8779 68.8181 12.8153 68.7152 12.8288C65.9683 13.189 63.2112 13.4667 60.4588 13.7808C59.5714 13.8816 58.2835 14.0339 56.713 14.2387Z" fill="#0061B2"/>
</g>
</svg>
