<svg width="65" height="65" viewBox="0 0 65 65" fill="none" xmlns="http://www.w3.org/2000/svg">
<g clip-path="url(#clip0_2141_1102)">
<path d="M32.5 6.09375C17.94 6.09375 6.09375 17.94 6.09375 32.5C6.09375 47.06 17.94 58.9062 32.5 58.9062C47.06 58.9062 58.9062 47.06 58.9062 32.5C58.9062 17.94 47.06 6.09375 32.5 6.09375ZM32.5 10.1562C44.8642 10.1562 54.8438 20.1358 54.8438 32.5C54.8438 44.8642 44.8642 54.8438 32.5 54.8438C20.1358 54.8438 10.1562 44.8642 10.1562 32.5C10.1562 20.1358 20.1358 10.1562 32.5 10.1562ZM20.3125 30.4688V34.5312H44.6875V30.4688H20.3125Z" fill="#08355C"/>
</g>
<defs>
<clipPath id="clip0_2141_1102">
<rect width="65" height="65" fill="white"/>
</clipPath>
</defs>
</svg>
