<svg width="50" height="50" viewBox="0 0 50 50" fill="none" xmlns="http://www.w3.org/2000/svg">
<circle cx="25" cy="25" r="24.5" fill="#E8EEFF" fill-opacity="0.7" stroke="#E8EEFF"/>
<path d="M42.2812 14.6293C41.0034 15.1972 39.6283 15.5804 38.1854 15.7518C39.6586 14.8699 40.7882 13.4729 41.3209 11.8063C39.943 12.6241 38.4175 13.2175 36.7927 13.5378C35.4923 12.1521 33.6388 11.2856 31.5878 11.2856C27.6501 11.2856 24.4575 14.4783 24.4575 18.4167C24.4575 18.9748 24.5202 19.5188 24.6423 20.0416C18.7156 19.7438 13.4607 16.9054 9.94349 12.5909C9.32966 13.6436 8.97829 14.8684 8.97829 16.1765C8.97829 18.6502 10.237 20.8332 12.1505 22.1117C10.9821 22.0743 9.88211 21.7533 8.92044 21.2191C8.91973 21.2488 8.91973 21.2791 8.91973 21.3095C8.91973 24.7639 11.3779 27.6453 14.6404 28.3015C14.0421 28.4638 13.412 28.5513 12.7615 28.5513C12.3015 28.5513 11.8548 28.5068 11.4195 28.4229C12.3276 31.2557 14.9607 33.318 18.0806 33.3751C15.6401 35.2879 12.566 36.4281 9.22453 36.4281C8.6495 36.4281 8.08153 36.3942 7.52344 36.3279C10.6801 38.3521 14.428 39.5318 18.4546 39.5318C31.5716 39.5318 38.7435 28.6663 38.7435 19.2429C38.7435 18.9339 38.7372 18.6255 38.7238 18.3193C40.1165 17.316 41.3258 16.0594 42.2812 14.6293Z" fill="black"/>
</svg>
