<svg width="50" height="50" viewBox="0 0 50 50" fill="none" xmlns="http://www.w3.org/2000/svg">
<circle cx="25" cy="25" r="24.5" fill="#E8EEFF" fill-opacity="0.7" stroke="#E8EEFF"/>
<path d="M25 42.5C21.5388 42.5 18.1554 41.4737 15.2775 39.5507C12.3997 37.6278 10.1566 34.8947 8.83212 31.697C7.50758 28.4993 7.16102 24.9806 7.83627 21.5859C8.51151 18.1913 10.1782 15.0731 12.6256 12.6256C15.0731 10.1782 18.1913 8.51151 21.5859 7.83627C24.9806 7.16102 28.4993 7.50758 31.697 8.83212C34.8947 10.1566 37.6278 12.3997 39.5507 15.2775C41.4737 18.1554 42.5 21.5388 42.5 25C42.5 29.6413 40.6563 34.0925 37.3744 37.3744C34.0925 40.6563 29.6413 42.5 25 42.5ZM25 10C22.0333 10 19.1332 10.8797 16.6665 12.528C14.1997 14.1762 12.2771 16.5189 11.1418 19.2598C10.0065 22.0006 9.70945 25.0166 10.2882 27.9264C10.867 30.8361 12.2956 33.5088 14.3934 35.6066C16.4912 37.7044 19.1639 39.133 22.0737 39.7118C24.9834 40.2906 27.9994 39.9935 30.7403 38.8582C33.4811 37.7229 35.8238 35.8003 37.472 33.3336C39.1203 30.8668 40 27.9667 40 25C40 21.0218 38.4197 17.2065 35.6066 14.3934C32.7936 11.5804 28.9783 10 25 10Z" fill="black"/>
<path d="M25 42.5C24.6685 42.5 24.3505 42.3683 24.1161 42.1339C23.8817 41.8995 23.75 41.5815 23.75 41.25V8.75C23.75 8.41848 23.8817 8.10054 24.1161 7.86612C24.3505 7.6317 24.6685 7.5 25 7.5C25.3315 7.5 25.6495 7.6317 25.8839 7.86612C26.1183 8.10054 26.25 8.41848 26.25 8.75V41.25C26.25 41.5815 26.1183 41.8995 25.8839 42.1339C25.6495 42.3683 25.3315 42.5 25 42.5Z" fill="black"/>
<path d="M33.75 26.25C33.4185 26.25 33.1005 26.1183 32.8661 25.8839C32.6317 25.6495 32.5 25.3315 32.5 25C32.5 16.875 29.0625 10 25 10C24.6685 10 24.3505 9.8683 24.1161 9.63388C23.8817 9.39946 23.75 9.08152 23.75 8.75C23.75 8.41848 23.8817 8.10054 24.1161 7.86612C24.3505 7.6317 24.6685 7.5 25 7.5C30.6125 7.5 35 15.1875 35 25C35 25.3315 34.8683 25.6495 34.6339 25.8839C34.3995 26.1183 34.0815 26.25 33.75 26.25Z" fill="black"/>
<path d="M25 42.5C24.6685 42.5 24.3505 42.3683 24.1161 42.1339C23.8817 41.8995 23.75 41.5815 23.75 41.25C23.75 40.9185 23.8817 40.6005 24.1161 40.3661C24.3505 40.1317 24.6685 40 25 40C29.0625 40 32.5 33.125 32.5 25C32.5 24.6685 32.6317 24.3505 32.8661 24.1161C33.1005 23.8817 33.4185 23.75 33.75 23.75C34.0815 23.75 34.3995 23.8817 34.6339 24.1161C34.8683 24.3505 35 24.6685 35 25C35 34.8125 30.6125 42.5 25 42.5Z" fill="black"/>
<path d="M16.25 26.25C15.9185 26.25 15.6005 26.1183 15.3661 25.8839C15.1317 25.6495 15 25.3315 15 25C15 15.1875 19.3875 7.5 25 7.5C25.3315 7.5 25.6495 7.6317 25.8839 7.86612C26.1183 8.10054 26.25 8.41848 26.25 8.75C26.25 9.08152 26.1183 9.39946 25.8839 9.63388C25.6495 9.8683 25.3315 10 25 10C20.9375 10 17.5 16.875 17.5 25C17.5 25.3315 17.3683 25.6495 17.1339 25.8839C16.8995 26.1183 16.5815 26.25 16.25 26.25Z" fill="black"/>
<path d="M25 42.5C19.3875 42.5 15 34.8125 15 25C15 24.6685 15.1317 24.3505 15.3661 24.1161C15.6005 23.8817 15.9185 23.75 16.25 23.75C16.5815 23.75 16.8995 23.8817 17.1339 24.1161C17.3683 24.3505 17.5 24.6685 17.5 25C17.5 33.125 20.9375 40 25 40C25.3315 40 25.6495 40.1317 25.8839 40.3661C26.1183 40.6005 26.25 40.9185 26.25 41.25C26.25 41.5815 26.1183 41.8995 25.8839 42.1339C25.6495 42.3683 25.3315 42.5 25 42.5Z" fill="black"/>
<path d="M41.25 26.25H8.75C8.41848 26.25 8.10054 26.1183 7.86612 25.8839C7.6317 25.6495 7.5 25.3315 7.5 25C7.5 24.6685 7.6317 24.3505 7.86612 24.1161C8.10054 23.8817 8.41848 23.75 8.75 23.75H41.25C41.5815 23.75 41.8995 23.8817 42.1339 24.1161C42.3683 24.3505 42.5 24.6685 42.5 25C42.5 25.3315 42.3683 25.6495 42.1339 25.8839C41.8995 26.1183 41.5815 26.25 41.25 26.25Z" fill="black"/>
<path d="M38.75 18.75H11.25C10.9185 18.75 10.6005 18.6183 10.3661 18.3839C10.1317 18.1495 10 17.8315 10 17.5C10 17.1685 10.1317 16.8505 10.3661 16.6161C10.6005 16.3817 10.9185 16.25 11.25 16.25H38.75C39.0815 16.25 39.3995 16.3817 39.6339 16.6161C39.8683 16.8505 40 17.1685 40 17.5C40 17.8315 39.8683 18.1495 39.6339 18.3839C39.3995 18.6183 39.0815 18.75 38.75 18.75Z" fill="black"/>
<path d="M38.75 33.75H11.25C10.9185 33.75 10.6005 33.6183 10.3661 33.3839C10.1317 33.1495 10 32.8315 10 32.5C10 32.1685 10.1317 31.8505 10.3661 31.6161C10.6005 31.3817 10.9185 31.25 11.25 31.25H38.75C39.0815 31.25 39.3995 31.3817 39.6339 31.6161C39.8683 31.8505 40 32.1685 40 32.5C40 32.8315 39.8683 33.1495 39.6339 33.3839C39.3995 33.6183 39.0815 33.75 38.75 33.75Z" fill="black"/>
</svg>
