<svg width="24" height="19" viewBox="0 0 24 19" fill="none" xmlns="http://www.w3.org/2000/svg">
<mask id="mask0_653_2703" style="mask-type:luminance" maskUnits="userSpaceOnUse" x="0" y="0" width="8" height="19">
<path d="M0 0.5H7.96503V18.2392H0V0.5Z" fill="white"/>
</mask>
<g mask="url(#mask0_653_2703)">
<path d="M4.40319 5.84418H4.41173C4.41173 5.10071 4.41256 4.35752 4.41145 3.61433C4.41063 3.27488 4.40925 2.93543 4.40154 2.59599C4.39769 2.42875 4.34592 2.26289 4.1832 2.19831C3.83792 2.06088 3.54992 2.26896 3.54992 2.63766C3.55019 4.44997 3.55102 6.262 3.55184 8.07431C3.55212 8.39085 3.55239 8.70739 3.5546 9.02393C3.55625 9.21573 3.66528 9.42685 3.79166 9.45417C4.09206 9.51847 4.412 9.45196 4.40705 9.02338C4.39493 7.96365 4.40319 6.90391 4.40319 5.84418ZM0.00133503 9.31977C0.00133503 7.17271 0.00161037 5.02592 0.000784349 2.87914C0.000784349 2.48091 0.0652139 2.09372 0.198754 1.72005C0.443806 1.03399 0.971357 0.705028 1.65723 0.586084C2.1611 0.498877 2.67048 0.530889 3.17793 0.528406C4.03369 0.524266 4.88944 0.528957 5.7452 0.535581C6.09929 0.538341 6.44897 0.584152 6.77415 0.735109C7.46112 1.05441 7.79456 1.62208 7.88074 2.35424C7.89891 2.50878 7.89918 2.66581 7.89946 2.82146C7.90111 5.64741 7.90056 8.47309 7.90469 11.299C7.90497 11.4268 7.83007 11.3984 7.76206 11.3984C6.51725 11.3992 5.27244 11.3989 4.02735 11.3989C3.98633 11.3989 3.94503 11.3981 3.904 11.3995C3.68621 11.4072 3.55542 11.5347 3.55074 11.7538C3.54634 11.9694 3.54992 12.1849 3.54992 12.4004C3.54992 13.7033 3.54964 15.0062 3.54992 16.309C3.54992 16.6742 3.90455 16.8803 4.22505 16.7001C4.37373 16.6165 4.41724 16.4766 4.41641 16.3154C4.41338 15.8291 4.40953 15.3431 4.40898 14.8569C4.4076 14.045 4.41063 13.2328 4.40622 12.4209C4.4054 12.3074 4.42219 12.2647 4.55215 12.2655C5.62322 12.2718 6.6943 12.271 7.76509 12.2666C7.88074 12.2661 7.91157 12.3 7.91075 12.4129C7.90166 13.6558 7.92066 14.8991 7.89478 16.1421C7.88514 16.6021 7.78932 17.0337 7.51729 17.4113C7.13842 17.9364 6.60399 18.1741 5.97373 18.1995C4.70689 18.2508 3.43868 18.2431 2.17101 18.2276C1.76516 18.2226 1.37473 18.118 1.00963 17.9389C0.46308 17.6704 0.195174 17.1996 0.0820096 16.6223C-0.00857723 16.16 0.000233666 15.6914 0.000233666 15.2239C0.000509006 13.2557 0.000509006 11.2877 0.000509006 9.31977" fill="#08355C"/>
</g>
<mask id="mask1_653_2703" style="mask-type:luminance" maskUnits="userSpaceOnUse" x="9" y="0" width="8" height="19">
<path d="M9.02246 0.5H16.9875V18.2392H9.02246V0.5Z" fill="white"/>
</mask>
<g mask="url(#mask1_653_2703)">
<path d="M9.05293 6.8763C9.05293 5.50913 9.05266 4.14197 9.05321 2.7748C9.05349 2.51732 9.08625 2.26315 9.146 2.01229C9.33956 1.20038 9.86629 0.715775 10.6915 0.58524C11.2055 0.503828 11.7235 0.530874 12.2397 0.52839C13.0867 0.52425 13.9333 0.52977 14.78 0.535289C15.0878 0.537221 15.3915 0.576133 15.6834 0.680175C16.3968 0.934345 16.8726 1.59668 16.9216 2.37299C16.9563 2.923 16.953 3.47329 16.9538 4.02358C16.956 5.50555 16.9522 6.98752 16.9555 8.46921C16.9557 8.57794 16.9271 8.60333 16.8211 8.60278C15.7363 8.59864 14.6511 8.59864 13.5663 8.60278C13.46 8.60306 13.4311 8.57767 13.4314 8.46838C13.435 6.52775 13.4339 4.58711 13.4339 2.64648C13.4339 2.59156 13.4355 2.53581 13.4295 2.48144C13.4118 2.32773 13.3243 2.22838 13.1745 2.19719C13.0366 2.16822 12.9005 2.18643 12.7711 2.23886C12.6808 2.27557 12.626 2.34511 12.6023 2.44143C12.5858 2.50959 12.5858 2.57776 12.5858 2.64648C12.5858 4.76153 12.5858 6.87658 12.5858 8.99162C12.5858 9.35922 12.7031 9.47706 13.069 9.47706C14.3141 9.47706 15.5592 9.47844 16.8043 9.47458C16.9158 9.4743 16.9568 9.48893 16.9563 9.61836C16.95 11.7425 16.9513 13.8667 16.9475 15.9908C16.9467 16.5155 16.8266 17.0089 16.5168 17.4419C16.1895 17.8989 15.7363 18.1448 15.1814 18.1765C13.8554 18.2524 12.5274 18.2364 11.2003 18.2257C10.8459 18.2226 10.5026 18.1382 10.1747 18.0024C9.52349 17.7322 9.2096 17.2073 9.09203 16.54C9.04963 16.3005 9.03889 16.0573 9.03917 15.8139C9.03972 14.6852 9.04192 13.5568 9.03614 12.428C9.03559 12.2892 9.07248 12.2558 9.21043 12.2567C10.2909 12.2633 11.371 12.2622 12.4512 12.2578C12.5616 12.2572 12.5839 12.2887 12.5836 12.3935C12.58 13.692 12.5869 14.9904 12.5781 16.2886C12.5754 16.7233 12.8353 16.7867 13.2089 16.7268C13.3389 16.7061 13.4284 16.5237 13.4286 16.3358C13.43 15.5606 13.4311 14.7851 13.4317 14.0099C13.4319 13.2758 13.4319 12.5415 13.4317 11.8076C13.4314 11.4853 13.3246 11.3791 13.003 11.3785C11.7259 11.3769 10.4489 11.3738 9.17188 11.3763C9.06312 11.3763 9.03669 11.3468 9.03696 11.2394C9.04054 9.78504 9.03944 8.33067 9.03944 6.8763" fill="#08355C"/>
</g>
<mask id="mask2_653_2703" style="mask-type:luminance" maskUnits="userSpaceOnUse" x="18" y="6" width="4" height="13">
<path d="M18.0439 6.01062H21.6388V18.2392H18.0439V6.01062Z" fill="white"/>
</mask>
<g mask="url(#mask2_653_2703)">
<path d="M21.5887 12.1361C21.5887 14.1175 21.5873 16.099 21.5917 18.0805C21.592 18.2072 21.5587 18.235 21.4361 18.2345C20.3654 18.2293 19.2946 18.2301 18.2238 18.2337C18.1211 18.2339 18.0869 18.2141 18.0869 18.1018C18.0902 14.1206 18.0902 10.1391 18.0869 6.15796C18.0869 6.05116 18.1172 6.03239 18.216 6.03267C19.2913 6.03625 20.3667 6.03681 21.4422 6.03211C21.5578 6.03156 21.5923 6.05281 21.592 6.17783C21.5873 8.16372 21.5887 10.1499 21.5887 12.1361Z" fill="#08355C"/>
</g>
<path d="M19.9767 0.50054C20.5351 0.50054 21.0932 0.499436 21.6513 0.500816C22.0275 0.501644 22.1995 0.673575 22.1852 1.05248C22.1563 1.83183 22.1693 2.61117 22.1723 3.39052C22.1734 3.63696 21.9919 3.85884 21.7469 3.88368C21.0555 3.95406 20.3636 4.0178 19.6717 4.08211C19.2482 4.12157 18.8253 4.17014 18.401 4.19029C17.9202 4.21347 17.8255 4.10529 17.8189 3.62151C17.8076 2.76434 17.7914 1.90689 17.7776 1.04972C17.7707 0.644322 17.9086 0.503576 18.3162 0.502748C18.8696 0.50192 19.4233 0.502748 19.9767 0.502748" fill="#52B9F3"/>
<mask id="mask3_653_2703" style="mask-type:luminance" maskUnits="userSpaceOnUse" x="18" y="4" width="6" height="2">
<path d="M18.0439 4.24438H23.9993V5.51606H18.0439V4.24438Z" fill="white"/>
</mask>
<g mask="url(#mask3_653_2703)">
<path d="M19.726 5.4526C19.6577 5.45011 19.5991 5.42555 19.5421 5.39575C19.093 5.162 18.6414 4.93239 18.1797 4.72403C18.1494 4.71023 18.0971 4.70968 18.1092 4.65807C18.1188 4.6164 18.1629 4.63489 18.1913 4.63268C18.6858 4.59156 19.1817 4.56121 19.6756 4.5165C19.8595 4.49994 19.9689 4.4878 20.1842 4.46489C20.6498 4.41549 21.3453 4.34346 22.3134 4.24963C22.5744 4.33519 22.7834 4.41356 22.9257 4.46931C23.4335 4.66773 23.8286 4.83056 23.9156 4.86533C23.9461 4.87747 24.0029 4.8703 23.9996 4.91914C23.9954 4.9793 23.9365 4.9575 23.9007 4.96219C22.9453 5.08749 21.9863 5.18408 21.0289 5.29336C20.7203 5.32841 20.2723 5.3814 19.726 5.4526Z" fill="#52B9F3"/>
</g>
</svg>
