<svg width="18" height="19" viewBox="0 0 18 19" fill="none" xmlns="http://www.w3.org/2000/svg">
<path fill-rule="evenodd" clip-rule="evenodd" d="M2.84206 0.5C1.27243 0.5 0 1.84315 0 3.5V8.5C0 10.1569 1.27243 11.5 2.84206 11.5L2.84206 14.0657C2.84206 14.4518 3.45432 14.6452 3.8124 14.3722L7.57882 11.5H10.4209C11.9905 11.5 13.2629 10.1569 13.2629 8.5V3.5C13.2629 1.84315 11.9905 0.5 10.4209 0.5H2.84206Z" fill="#52B9F3"/>
<path d="M14.684 4.5H15.1579C16.7276 4.5 18 5.84315 18 7.5V12.5C18 14.1569 16.7276 15.5 15.1579 15.5V18.0657C15.1579 18.4518 14.5457 18.6452 14.1876 18.3722L10.4212 15.5H7.57912C6.86792 15.5 6.21774 15.2243 5.71928 14.7685L8.03842 13H10.4209C12.7753 13 14.684 10.9853 14.684 8.5V4.5Z" fill="#08355C"/>
<path d="M6.48385 7.23017C6.1662 7.23017 5.9027 6.95733 5.93794 6.62409C5.94979 6.51203 5.96524 6.41341 5.9843 6.34085C6.0365 6.14893 6.11211 5.99501 6.21112 5.8791C6.31013 5.76128 6.43075 5.65392 6.57296 5.55701C6.68637 5.481 6.78719 5.40404 6.87539 5.32613C6.9654 5.24632 7.03651 5.16081 7.08872 5.0696C7.14092 4.97838 7.16703 4.87482 7.16703 4.75891C7.16703 4.64679 7.14182 4.54798 7.09142 4.46247C7.04101 4.37696 6.97171 4.3114 6.8835 4.2658C6.79709 4.21829 6.70078 4.19454 6.59456 4.19454C6.48835 4.19454 6.38844 4.22019 6.29483 4.2715C6.20302 4.3228 6.12741 4.39596 6.06801 4.49097C5.96551 4.65665 5.82834 4.83017 5.64088 4.83017H5.3667C5.02026 4.83017 4.72184 4.52117 4.83924 4.17712C4.88016 4.05718 4.93331 3.94802 4.99869 3.84964C5.16971 3.59501 5.39563 3.40689 5.67647 3.28527C5.9573 3.16176 6.26693 3.1 6.60537 3.1C6.97621 3.1 7.30564 3.16081 7.59367 3.28242C7.8835 3.40404 8.11123 3.58361 8.27685 3.82114C8.44246 4.05867 8.52527 4.34941 8.52527 4.69335C8.52527 4.91948 8.48927 5.119 8.41726 5.29192C8.34525 5.46485 8.24444 5.61781 8.11483 5.75083C7.98702 5.88195 7.8367 6.00166 7.66388 6.10998C7.52887 6.19359 7.41635 6.281 7.32634 6.37221C7.23813 6.46342 7.17153 6.56793 7.12652 6.68575C7.01712 6.96751 6.82515 7.23017 6.53667 7.23017H6.48385ZM6.50546 9.1C6.31103 9.1 6.14452 9.02779 6.0059 8.88337C5.86909 8.73895 5.80158 8.56413 5.80338 8.35891C5.80158 8.15748 5.86909 7.98551 6.0059 7.84299C6.14452 7.69857 6.31103 7.62637 6.50546 7.62637C6.69088 7.62637 6.85379 7.69857 6.99421 7.84299C7.13462 7.98551 7.20573 8.15748 7.20753 8.35891C7.20573 8.49572 7.17153 8.62019 7.10492 8.7323C7.04011 8.84442 6.9546 8.93373 6.84839 9.00024C6.74398 9.06675 6.62967 9.1 6.50546 9.1Z" fill="white"/>
</svg>
