<svg width="24" height="25" viewBox="0 0 24 25" fill="none" xmlns="http://www.w3.org/2000/svg">
<path fill-rule="evenodd" clip-rule="evenodd" d="M16.4079 8.01462C16.0174 7.62831 16.1229 6.89758 16.6436 6.38249L17.5864 5.44985C18.1071 4.93476 18.8458 4.83037 19.2363 5.21669C19.6268 5.603 19.5213 6.33373 19.0006 6.84882L18.0578 7.78146C17.5371 8.29655 16.7984 8.40094 16.4079 8.01462Z" fill="#52B9F3"/>
<path fill-rule="evenodd" clip-rule="evenodd" d="M13.0809 7.54195C12.5474 7.40055 12.2695 6.71552 12.4601 6.0119L12.8052 4.73788C12.9958 4.03426 13.5827 3.5785 14.1162 3.7199C14.6496 3.8613 14.9276 4.54632 14.737 5.24994L14.3919 6.52396C14.2013 7.22758 13.6144 7.68335 13.0809 7.54195Z" fill="#52B9F3"/>
<path fill-rule="evenodd" clip-rule="evenodd" d="M16.9475 11.3668C17.0904 11.8945 17.7829 12.1695 18.4942 11.981L19.7821 11.6396C20.4934 11.4511 20.9541 10.8704 20.8112 10.3427C20.6682 9.815 19.9757 9.54004 19.2645 9.72857L17.9766 10.0699C17.2653 10.2585 16.8045 10.8391 16.9475 11.3668Z" fill="#52B9F3"/>
<path fill-rule="evenodd" clip-rule="evenodd" d="M13.4155 17.1393C10.9171 15.8839 8.87053 13.9366 7.56512 11.5693L9.14577 10.6314C9.6412 10.3375 9.85455 9.73601 9.65346 9.20026L7.75594 4.1449C7.60383 3.73965 7.20333 3.47904 6.76692 3.50133L4.63541 3.61016C4.43985 3.62015 4.25686 3.66894 4.09295 3.74818C3.48043 3.913 3.02466 4.43606 3.0064 5.06716C3.00214 5.21435 3 5.362 3 5.51008C3 6.03138 3.02655 6.54726 3.07852 7.05653C3.88897 14.9986 10.8664 21.2432 19.4525 21.4993C19.6008 21.5037 19.7447 21.4877 19.8813 21.454C20.4634 21.5183 20.9899 21.0673 20.9899 20.4705L20.9899 20.2529C20.9947 20.2135 20.9979 20.1735 20.9992 20.1332C21.0016 20.062 20.9984 19.9918 20.9899 19.9231L20.9899 17.9797C20.9899 17.3683 20.5847 16.8293 19.9928 16.6533L15.908 15.4391C15.3596 15.276 14.7661 15.4599 14.4095 15.9032L13.4155 17.1393Z" fill="#08355C"/>
</svg>
