<svg width="24" height="25" viewBox="0 0 24 25" fill="none" xmlns="http://www.w3.org/2000/svg">
<path d="M3 6.5C3 4.84315 4.34315 3.5 6 3.5H12.5C14.1569 3.5 15.5 4.84315 15.5 6.5V18.5C15.5 20.1569 14.1569 21.5 12.5 21.5H6C4.34315 21.5 3 20.1569 3 18.5V6.5Z" fill="#08355C"/>
<path fill-rule="evenodd" clip-rule="evenodd" d="M5 10.75C5 10.3358 5.33579 10 5.75 10H10.25C10.6642 10 11 10.3358 11 10.75C11 11.1642 10.6642 11.5 10.25 11.5H5.75C5.33579 11.5 5 11.1642 5 10.75Z" fill="white"/>
<path fill-rule="evenodd" clip-rule="evenodd" d="M5 14.25C5 13.8358 5.33579 13.5 5.75 13.5H12.25C12.6642 13.5 13 13.8358 13 14.25C13 14.6642 12.6642 15 12.25 15H5.75C5.33579 15 5 14.6642 5 14.25Z" fill="white"/>
<path d="M17.5 5C17.5 4.44772 17.9477 4 18.5 4H20C20.5523 4 21 4.44772 21 5V18.6848C21 18.8899 20.9369 19.0902 20.8192 19.2582L19.7415 20.7978C19.5027 21.139 18.9973 21.139 18.7585 20.7978L17.6808 19.2582C17.5631 19.0902 17.5 18.8899 17.5 18.6848V5Z" fill="#52B9F3"/>
</svg>
