<svg width="24" height="24" viewBox="0 0 24 24" fill="none" xmlns="http://www.w3.org/2000/svg">
<path d="M4 7.37838C4 6.30366 4.89543 5.43243 6 5.43243H18C19.1046 5.43243 20 6.30366 20 7.37838V19.0541C20 20.1288 19.1046 21 18 21H6C4.89543 21 4 20.1288 4 19.0541V7.37838Z" fill="#08355C"/>
<path d="M7 8.35135C7 7.81399 7.44772 7.37838 8 7.37838H16C16.5523 7.37838 17 7.81399 17 8.35135C17 8.88871 16.5523 9.32432 16 9.32432H8C7.44772 9.32432 7 8.88871 7 8.35135Z" fill="white"/>
<path d="M8 3C6.89543 3 6 3.87123 6 4.94595V5.43243H18V4.94595C18 3.87123 17.1046 3 16 3H8Z" fill="#52B9F3"/>
</svg>
