<svg width="20" height="21" viewBox="0 0 20 21" fill="none" xmlns="http://www.w3.org/2000/svg">
<g clip-path="url(#clip0_658_3780)">
<path d="M8 5.47L8.954 5.074C9.89627 4.72774 10.9343 4.74844 11.862 5.132L13.344 5.745C14.1996 6.09867 15.1513 6.14462 16.037 5.875L16.93 5.604C17.1696 5.53124 17.423 5.51561 17.6697 5.55834C17.9165 5.60108 18.1498 5.701 18.351 5.85011C18.5522 5.99921 18.7157 6.19336 18.8284 6.417C18.9411 6.64065 18.9999 6.88757 19 7.138V11.2C19 11.775 18.8461 12.3395 18.5542 12.8349C18.2622 13.3303 17.843 13.7384 17.34 14.017L16.606 14.424C16.0124 14.7532 15.3448 14.9259 14.666 14.9259C13.9872 14.9259 13.3196 14.7532 12.726 14.424L12.273 14.173C11.6794 13.8438 11.0118 13.6711 10.333 13.6711C9.65422 13.6711 8.9866 13.8438 8.393 14.173L8.167 14.299C8.112 14.329 8.057 14.355 8 14.378V19.5C8 19.7652 7.89464 20.0196 7.70711 20.2071C7.51957 20.3946 7.26522 20.5 7 20.5C6.73478 20.5 6.48043 20.3946 6.29289 20.2071C6.10536 20.0196 6 19.7652 6 19.5V5.5C6 5.23478 6.10536 4.98043 6.29289 4.79289C6.48043 4.60536 6.73478 4.5 7 4.5C7.81 4.5 8 5.47 8 5.47Z" fill="#52B9F3"/>
<path fill-rule="evenodd" clip-rule="evenodd" d="M6.804 3.132L6.167 3.396C5.52564 3.66118 4.97738 4.11069 4.59163 4.68763C4.20588 5.26456 3.99998 5.94298 4 6.637V11.023C4.00024 11.2769 4.06671 11.5264 4.19283 11.7468C4.31896 11.9672 4.50038 12.1509 4.71919 12.2797C4.938 12.4085 5.18663 12.4781 5.44053 12.4815C5.69444 12.4849 5.94483 12.422 6.167 12.299L6.394 12.173C6.9876 11.8438 7.65522 11.6711 8.334 11.6711C9.01278 11.6711 9.6804 11.8438 10.274 12.173L10.727 12.424C11.3206 12.7532 11.9882 12.9259 12.667 12.9259C13.3458 12.9259 14.0134 12.7532 14.607 12.424L15.341 12.017C15.8437 11.7381 16.2626 11.3299 16.5543 10.8345C16.846 10.3392 16.9999 9.77485 17 9.2V5.138C16.9997 4.88764 16.9408 4.64083 16.828 4.4173C16.7152 4.19377 16.5518 3.99972 16.3506 3.85065C16.1495 3.70159 15.9162 3.60165 15.6696 3.55882C15.4229 3.51599 15.1696 3.53147 14.93 3.604L14.037 3.876C13.1513 4.14562 12.1996 4.09967 11.344 3.746L9.862 3.132C8.8829 2.72698 7.7831 2.72698 6.804 3.132ZM5 6.637C5 5.623 5.611 4.708 6.549 4.32L7.187 4.056C7.92118 3.75237 8.74582 3.75237 9.48 4.056L10.961 4.669C12.0306 5.11143 13.2206 5.16904 14.328 4.832L15.221 4.561C15.3112 4.53371 15.4064 4.52788 15.4992 4.54398C15.5921 4.56008 15.6798 4.59767 15.7555 4.65373C15.8312 4.7098 15.8927 4.78279 15.9352 4.86687C15.9776 4.95096 15.9998 5.04381 16 5.138V9.2C16 10.007 15.562 10.751 14.856 11.143L14.121 11.55C13.6758 11.7969 13.1751 11.9265 12.666 11.9265C12.1569 11.9265 11.6562 11.7969 11.211 11.55L10.758 11.298C10.016 10.8865 9.18148 10.6706 8.333 10.6706C7.48452 10.6706 6.65 10.8865 5.908 11.298L5.682 11.424C5.6121 11.4625 5.53338 11.4822 5.45358 11.4811C5.37378 11.48 5.29564 11.4581 5.22684 11.4177C5.15805 11.3772 5.10096 11.3195 5.06118 11.2504C5.02141 11.1812 5.00033 11.1028 5 11.023V6.637Z" fill="#08355C"/>
<path fill-rule="evenodd" clip-rule="evenodd" d="M5 2.5C5.26522 2.5 5.51957 2.60536 5.70711 2.79289C5.89464 2.98043 6 3.23478 6 3.5V17.5C6 17.7652 5.89464 18.0196 5.70711 18.2071C5.51957 18.3946 5.26522 18.5 5 18.5C4.73478 18.5 4.48043 18.3946 4.29289 18.2071C4.10536 18.0196 4 17.7652 4 17.5V3.5C4 3.23478 4.10536 2.98043 4.29289 2.79289C4.48043 2.60536 4.73478 2.5 5 2.5Z" fill="#08355C"/>
</g>
<defs>
<clipPath id="clip0_658_3780">
<rect width="20" height="20" fill="white" transform="translate(0 0.5)"/>
</clipPath>
</defs>
</svg>
