<svg width="22" height="20" viewBox="0 0 22 20" fill="none" xmlns="http://www.w3.org/2000/svg">
<path d="M4.795 12.3059L3.023 10.5309L1.25 12.3059M17.205 7.72693L18.977 9.50293L20.75 7.72693" stroke="#08355C" stroke-width="1.5" stroke-linecap="round" stroke-linejoin="round"/>
<path d="M18.9774 9.50295C18.9774 7.38295 18.1374 5.35195 16.6414 3.85295C15.9011 3.11125 15.0219 2.52281 14.0539 2.12129C13.086 1.71976 12.0484 1.51304 11.0004 1.51295C9.98243 1.51136 8.97379 1.70731 8.03044 2.08995C6.977 2.51211 6.02576 3.1542 5.24027 3.97332C4.45477 4.79245 3.8531 5.76975 3.47544 6.83995M3.02344 10.5299C3.02472 12.3846 3.67057 14.181 4.85044 15.6119C6.02846 17.0418 7.66793 18.0163 9.48683 18.368C11.3057 18.7197 13.1903 18.4266 14.8164 17.5389C16.4434 16.6511 17.7108 15.2249 18.4014 13.5049" stroke="#08355C" stroke-width="1.5" stroke-linecap="round" stroke-linejoin="round"/>
<path d="M8.58008 11.9779C8.63188 12.5717 8.91423 13.1215 9.36659 13.5096C9.81896 13.8977 10.4054 14.0931 11.0001 14.0539C12.9521 14.0539 13.4201 12.9309 13.4201 11.9779C13.4201 11.0249 12.6131 10.0149 11.0001 10.0149C9.38708 10.0149 8.58008 9.37694 8.58008 8.07694C8.60302 7.62662 8.7623 7.19392 9.0368 6.8362C9.31129 6.47848 9.68804 6.21264 10.1171 6.07394C10.4021 5.98194 10.7021 5.94894 11.0001 5.97694C11.5956 5.95082 12.1784 6.154 12.6286 6.54466C13.0788 6.93532 13.362 7.48372 13.4201 8.07694M11.0001 15.2639V14.2129M11.0001 4.76294V5.97294" stroke="#52B9F3" stroke-width="1.5" stroke-linecap="round" stroke-linejoin="round"/>
</svg>
