<svg width="24" height="24" viewBox="0 0 24 24" fill="none" xmlns="http://www.w3.org/2000/svg">
<path d="M4 5.6C4 4.16406 5.09559 3 6.44706 3H18.8706C19.4943 3 20 3.53726 20 4.2V19.8C20 20.4627 19.4943 21 18.8706 21H6.44706C5.09559 21 4 19.8359 4 18.4V5.6Z" fill="#08355C"/>
<path d="M5.88235 17.5C5.88235 16.6716 6.51442 16 7.29412 16H18.1176V19H7.29412C6.51442 19 5.88235 18.3284 5.88235 17.5Z" fill="white"/>
<path fill-rule="evenodd" clip-rule="evenodd" d="M6.82353 7.25C6.82353 6.83579 7.13956 6.5 7.52941 6.5H13.6471C14.0369 6.5 14.3529 6.83579 14.3529 7.25C14.3529 7.66421 14.0369 8 13.6471 8H7.52941C7.13956 8 6.82353 7.66421 6.82353 7.25Z" fill="#52B9F3"/>
<path fill-rule="evenodd" clip-rule="evenodd" d="M6.82353 10.75C6.82353 10.3358 7.13956 10 7.52941 10H15.5294C15.9193 10 16.2353 10.3358 16.2353 10.75C16.2353 11.1642 15.9193 11.5 15.5294 11.5H7.52941C7.13956 11.5 6.82353 11.1642 6.82353 10.75Z" fill="#52B9F3"/>
</svg>
