<svg width="24" height="25" viewBox="0 0 24 25" fill="none" xmlns="http://www.w3.org/2000/svg">
<path d="M4 7.87838C4 6.80366 4.89543 5.93243 6 5.93243H18C19.1046 5.93243 20 6.80366 20 7.87838V19.5541C20 20.6288 19.1046 21.5 18 21.5H6C4.89543 21.5 4 20.6288 4 19.5541V7.87838Z" fill="#08355C"/>
<path d="M7 8.85135C7 8.31399 7.44772 7.87838 8 7.87838H16C16.5523 7.87838 17 8.31399 17 8.85135C17 9.38871 16.5523 9.82432 16 9.82432H8C7.44772 9.82432 7 9.38871 7 8.85135Z" fill="white"/>
<path d="M8 3.5C6.89543 3.5 6 4.37123 6 5.44595V5.93243H18V5.44595C18 4.37123 17.1046 3.5 16 3.5H8Z" fill="#52B9F3"/>
</svg>
