<svg width="24" height="25" viewBox="0 0 24 25" fill="none" xmlns="http://www.w3.org/2000/svg">
<path fill-rule="evenodd" clip-rule="evenodd" d="M14.7317 15.9818C14.591 16.08 14.5 16.2375 14.5 16.4091C14.5 16.6802 14.2802 16.9 14.0091 16.9H9.99087C9.71977 16.9 9.5 16.6802 9.5 16.4091C9.5 16.2375 9.40904 16.08 9.26825 15.9818C8.19333 15.232 7.5 14.0111 7.5 12.4924C7.5 9.90344 9.51472 7.80469 12 7.80469C14.4853 7.80469 16.5 9.90344 16.5 12.4924C16.5 14.0111 15.8067 15.232 14.7317 15.9818ZM9.95877 18.1738C9.7054 18.1738 9.5 18.3792 9.5 18.6326V18.9999C9.5 20.3806 10.6193 21.4999 12 21.4999C13.3807 21.4999 14.5 20.3806 14.5 18.9999V18.6326C14.5 18.3792 14.2946 18.1738 14.0412 18.1738H9.95877Z" fill="#08355C"/>
<path fill-rule="evenodd" clip-rule="evenodd" d="M18 11.5C18 10.9477 18.4477 10.5 19 10.5H20C20.5523 10.5 21 10.9477 21 11.5C21 12.0523 20.5523 12.5 20 12.5H19C18.4477 12.5 18 12.0523 18 11.5Z" fill="#52B9F3"/>
<path fill-rule="evenodd" clip-rule="evenodd" d="M3 11.5C3 10.9477 3.44772 10.5 4 10.5H5C5.55228 10.5 6 10.9477 6 11.5C6 12.0523 5.55228 12.5 5 12.5H4C3.44772 12.5 3 12.0523 3 11.5Z" fill="#52B9F3"/>
<path fill-rule="evenodd" clip-rule="evenodd" d="M5.64279 5.73396C5.99779 5.31088 6.62855 5.2557 7.05162 5.6107L7.81766 6.25349C8.24074 6.60849 8.29592 7.23924 7.94092 7.66232C7.58592 8.08539 6.95516 8.14058 6.53209 7.78558L5.76604 7.14279C5.34297 6.78779 5.28779 6.15703 5.64279 5.73396Z" fill="#52B9F3"/>
<path fill-rule="evenodd" clip-rule="evenodd" d="M18.6556 5.73396C18.3006 5.31088 17.6698 5.2557 17.2467 5.6107L16.4807 6.25349C16.0576 6.60849 16.0024 7.23924 16.3574 7.66232C16.7124 8.08539 17.3432 8.14058 17.7663 7.78558L18.5323 7.14279C18.9554 6.78779 19.0106 6.15703 18.6556 5.73396Z" fill="#52B9F3"/>
<path fill-rule="evenodd" clip-rule="evenodd" d="M12 6.5C11.4477 6.5 11 6.05228 11 5.5V4.5C11 3.94772 11.4477 3.5 12 3.5C12.5523 3.5 13 3.94772 13 4.5V5.5C13 6.05228 12.5523 6.5 12 6.5Z" fill="#52B9F3"/>
</svg>
