<svg width="24" height="24" viewBox="0 0 24 24" fill="none" xmlns="http://www.w3.org/2000/svg">
<path d="M3 9.88785C3 7.65616 4.69353 5.84701 6.7826 5.84701H9.61955V13.9287H6.7826C4.69353 13.9287 3 12.1196 3 9.88785Z" fill="#08355C"/>
<path fill-rule="evenodd" clip-rule="evenodd" d="M4.27874 14.7588L6.33853 19.8931C6.60793 20.5646 7.22602 21 7.90992 21C8.85412 21 9.61955 20.1823 9.61955 19.1737V15.4438H6.7826C5.8749 15.4438 5.02151 15.1954 4.27874 14.7588Z" fill="#08355C"/>
<path d="M15.5548 3.13735C14.5022 4.0962 12.8912 5.18712 11.038 5.84701V13.9287C12.8211 13.9287 14.38 15.1259 15.433 16.2662C15.8372 16.7038 16.7119 16.396 16.7119 15.7812V3.62975C16.7119 3.11746 15.9197 2.80497 15.5548 3.13735Z" fill="#08355C"/>
<path fill-rule="evenodd" clip-rule="evenodd" d="M18.1631 9.88821C18.1631 9.33029 18.5864 8.878 19.1087 8.878H20.0543C20.5766 8.878 21 9.33029 21 9.88821C21 10.4461 20.5766 10.8984 20.0543 10.8984H19.1087C18.5864 10.8984 18.1631 10.4461 18.1631 9.88821Z" fill="#52B9F3"/>
<path fill-rule="evenodd" clip-rule="evenodd" d="M18.2572 7.22734C17.9961 6.74416 18.1511 6.12633 18.6034 5.84736L19.4223 5.34226C19.8746 5.06329 20.453 5.22884 20.7141 5.71202C20.9753 6.1952 20.8203 6.81303 20.368 7.09199L19.549 7.5971C19.0967 7.87606 18.5184 7.71051 18.2572 7.22734Z" fill="#52B9F3"/>
<path fill-rule="evenodd" clip-rule="evenodd" d="M18.2572 12.7513C17.9961 13.2345 18.1511 13.8523 18.6034 14.1313L19.4223 14.6364C19.8746 14.9154 20.453 14.7498 20.7141 14.2666C20.9753 13.7835 20.8203 13.1656 20.368 12.8867L19.549 12.3816C19.0967 12.1026 18.5184 12.2681 18.2572 12.7513Z" fill="#52B9F3"/>
</svg>
