<svg width="24" height="24" viewBox="0 0 24 24" fill="none" xmlns="http://www.w3.org/2000/svg">
<path d="M21 9.5C21 13.0899 18.0899 16 14.5 16C10.9101 16 8 13.0899 8 9.5C8 5.91015 10.9101 3 14.5 3C18.0899 3 21 5.91015 21 9.5Z" fill="#08355C"/>
<path d="M16 14.5C16 18.0899 13.0899 21 9.5 21C5.91015 21 3 18.0899 3 14.5C3 10.9101 5.91015 8 9.5 8C13.0899 8 16 10.9101 16 14.5Z" fill="#52B9F3"/>
<path d="M8.14206 8.14206C8.58002 8.04898 9.03429 8 9.5 8C13.0899 8 16 10.9101 16 14.5C16 14.9657 15.951 15.42 15.8579 15.8579C15.42 15.951 14.9657 16 14.5 16C10.9101 16 8 13.0899 8 9.5C8 9.03429 8.04898 8.58002 8.14206 8.14206Z" fill="white"/>
</svg>
